<svg width="330" height="80" viewBox="0 0 330 80" fill="none" xmlns="http://www.w3.org/2000/svg">
<ellipse cx="39.4444" cy="40" rx="39.4444" ry="40" fill="#FBDCC1"/>
<ellipse cx="39.9374" cy="31.5" rx="18.2431" ry="18.5" fill="#F4A461"/>
<path fill-rule="evenodd" clip-rule="evenodd" d="M76.8856 53C71.6744 68.6866 56.8806 80 39.4444 80C22.0082 80 7.21438 68.6866 2.00317 53H76.8856Z" fill="#14617F"/>
<path fill-rule="evenodd" clip-rule="evenodd" d="M2.12999 53C1.15901 50.1333 0.500229 47.1193 0.194824 44H78.6942C78.3888 47.1193 77.73 50.1333 76.759 53H2.12999Z" fill="#1F93C0"/>
<path fill-rule="evenodd" clip-rule="evenodd" d="M78.6941 44C78.8229 42.6844 78.8889 41.35 78.8889 40C78.8889 39.6657 78.8848 39.3323 78.8768 39H0.0120857C0.0040442 39.3323 0 39.6657 0 40C0 41.35 0.0659489 42.6844 0.194758 44H78.6941Z" fill="#46B5E0"/>
<path fill-rule="evenodd" clip-rule="evenodd" d="M78.7797 37C78.8282 37.6623 78.8607 38.3291 78.8769 39H0.012207C0.0284402 38.3291 0.0609626 37.6623 0.109388 37H78.7797Z" fill="#87CEEB"/>
<path d="M101.243 62.872C100.123 62.2747 99.4134 61.6587 99.1147 61.024C98.8161 60.3893 98.6667 59.848 98.6667 59.4C98.6667 58.392 99.0214 57.048 99.7307 55.368C100.477 53.6507 101.467 51.6907 102.699 49.488C103.931 47.2853 105.331 44.9893 106.899 42.6C105.741 42.5253 104.64 42.4693 103.595 42.432C102.549 42.3947 101.205 42.376 99.5627 42.376H98.6667C99.1894 41.032 100.011 40.0987 101.131 39.576C102.288 39.016 103.632 38.736 105.163 38.736C105.797 38.736 106.451 38.7733 107.123 38.848C107.832 38.9227 108.56 38.9973 109.307 39.072C111.173 36.384 113.003 33.8453 114.795 31.456C116.624 29.0667 118.341 26.92 119.947 25.016C121.589 23.0747 123.045 21.488 124.315 20.256C126.107 18.464 127.413 17.568 128.235 17.568C128.757 17.568 129.336 17.7733 129.971 18.184C130.643 18.5947 131.333 19.1173 132.043 19.752C131.669 20.0507 131.184 20.816 130.587 22.048C130.027 23.28 129.411 24.848 128.739 26.752C128.104 28.6187 127.451 30.672 126.779 32.912C126.144 35.152 125.565 37.4293 125.043 39.744C124.52 42.0587 124.091 44.28 123.755 46.408C123.456 48.4987 123.307 50.3467 123.307 51.952C123.307 53.4453 123.456 54.5653 123.755 55.312C124.053 56.0213 124.557 56.376 125.267 56.376C126.125 56.376 127.189 55.7227 128.459 54.416C129.728 53.1093 131.147 50.9813 132.715 48.032L133.723 49.096C132.565 52.1573 131.053 54.6773 129.187 56.656C127.357 58.6347 125.397 59.624 123.307 59.624C121.515 59.624 120.245 58.8587 119.499 57.328C118.752 55.76 118.379 53.632 118.379 50.944C118.379 50.0853 118.435 49.1147 118.547 48.032C118.659 46.9493 118.845 45.6053 119.107 44C117.464 43.7387 116.008 43.5333 114.739 43.384C113.469 43.2347 112.256 43.0853 111.099 42.936C109.307 46.1093 107.571 49.3947 105.891 52.792C104.211 56.1893 102.661 59.5493 101.243 62.872ZM119.667 41.256C120.152 39.0533 120.712 36.832 121.347 34.592C122.019 32.3147 122.709 30.1493 123.419 28.096C124.165 26.0053 124.893 24.1387 125.603 22.496C124.483 23.392 123.232 24.68 121.851 26.36C120.469 28.04 119.013 30.0187 117.483 32.296C115.989 34.5733 114.459 37.056 112.891 39.744C114.011 39.968 115.131 40.2107 116.251 40.472C117.371 40.7333 118.509 40.9947 119.667 41.256Z" fill="#FBDCC1"/>
<path d="M135.967 59.68C134.212 59.68 132.98 59.1013 132.271 57.944C131.599 56.7493 131.263 55.3493 131.263 53.744C131.263 51.9147 131.599 49.768 132.271 47.304C132.943 44.84 133.82 42.264 134.903 39.576C136.023 36.8507 137.236 34.2 138.543 31.624C139.887 29.0107 141.231 26.6587 142.575 24.568C143.919 22.4773 145.151 20.816 146.271 19.584C147.428 18.3147 148.362 17.68 149.071 17.68C149.556 17.68 149.967 17.9413 150.303 18.464C150.639 18.9493 150.9 19.5467 151.087 20.256C151.311 20.928 151.423 21.5627 151.423 22.16C151.423 23.168 151.162 24.4933 150.639 26.136C150.154 27.7413 149.444 29.5147 148.511 31.456C147.615 33.3973 146.532 35.3947 145.263 37.448C144.031 39.464 142.65 41.3867 141.119 43.216C139.626 45.0453 138.02 46.632 136.303 47.976C136.154 48.9093 136.004 49.8427 135.855 50.776C135.743 51.672 135.687 52.4933 135.687 53.24C135.687 54.584 135.911 55.5733 136.359 56.208C136.807 56.8053 137.386 57.104 138.095 57.104C139.028 57.104 139.98 56.6747 140.951 55.816C141.959 54.92 142.911 53.8 143.807 52.456C144.74 51.0747 145.543 49.656 146.215 48.2L147.559 48.928C145.954 52.2507 144.162 54.8827 142.183 56.824C140.204 58.728 138.132 59.68 135.967 59.68ZM137.311 44.504C138.58 43.1227 139.775 41.6293 140.895 40.024C142.052 38.3813 143.098 36.72 144.031 35.04C145.002 33.36 145.842 31.736 146.551 30.168C147.26 28.6 147.802 27.2 148.175 25.968C148.586 24.6987 148.81 23.6907 148.847 22.944C148.847 22.9067 148.847 22.888 148.847 22.888C148.847 22.8507 148.847 22.8133 148.847 22.776C148.548 22.776 148.063 23.2053 147.391 24.064C146.756 24.8853 145.991 26.024 145.095 27.48C144.199 28.936 143.266 30.5973 142.295 32.464C141.362 34.3307 140.447 36.3093 139.551 38.4C138.692 40.4533 137.946 42.488 137.311 44.504Z" fill="#FBDCC1"/>
<path d="M148.574 59.792C146.894 59.792 145.736 59.232 145.102 58.112C144.504 57.0293 144.206 55.8347 144.206 54.528C144.206 53.3333 144.392 52.12 144.766 50.888C145.139 49.6187 145.643 48.4427 146.278 47.36C146.95 46.2773 147.678 45.4187 148.462 44.784C149.283 44.112 150.104 43.776 150.926 43.776C151.187 43.776 151.486 43.832 151.822 43.944C152.195 44.0187 152.456 44.1493 152.606 44.336C152.158 44.896 151.691 45.5867 151.206 46.408C150.758 47.2293 150.328 48.1067 149.918 49.04C149.544 49.936 149.246 50.8507 149.022 51.784C148.798 52.7173 148.686 53.576 148.686 54.36C148.686 55.1067 148.816 55.7227 149.078 56.208C149.376 56.6933 149.88 56.936 150.59 56.936C151.299 56.936 152.139 56.544 153.11 55.76C154.118 54.9387 155.07 54.0053 155.966 52.96C154.771 51.8773 153.912 50.7013 153.39 49.432C152.867 48.1253 152.606 46.5573 152.606 44.728C152.606 43.944 152.792 43.048 153.166 42.04C153.576 41.032 154.211 40.1547 155.07 39.408C155.966 38.6613 157.16 38.288 158.654 38.288C160.259 38.288 161.379 38.736 162.014 39.632C162.686 40.528 163.022 41.592 163.022 42.824C163.022 44.2053 162.648 45.7547 161.902 47.472C161.192 49.1893 160.334 50.8133 159.326 52.344C159.774 52.568 160.296 52.68 160.894 52.68C161.454 52.68 162.126 52.5493 162.91 52.288C163.694 52.0267 164.459 51.5973 165.206 51C165.952 50.3653 166.55 49.5253 166.998 48.48L168.006 49.208C167.184 51.112 166.083 52.512 164.702 53.408C163.358 54.2667 162.032 54.696 160.726 54.696C160.24 54.696 159.755 54.6587 159.27 54.584C158.784 54.472 158.336 54.3413 157.926 54.192C156.656 55.6853 155.2 56.992 153.558 58.112C151.915 59.232 150.254 59.792 148.574 59.792ZM157.422 51.168C158.318 49.8613 159.083 48.4613 159.718 46.968C160.352 45.4747 160.67 44.0933 160.67 42.824C160.67 41.9653 160.539 41.3493 160.278 40.976C160.016 40.5653 159.624 40.36 159.102 40.36C158.392 40.36 157.664 40.864 156.918 41.872C156.171 42.88 155.798 44.1493 155.798 45.68C155.798 46.464 155.928 47.416 156.19 48.536C156.488 49.656 156.899 50.5333 157.422 51.168Z" fill="#FBDCC1"/>
<path d="M168.29 60.128C167.468 60.128 166.871 59.4933 166.498 58.224C166.162 56.9547 165.994 55.48 165.994 53.8C165.994 52.0827 166.274 50.0107 166.834 47.584C167.431 45.1573 168.215 42.6 169.186 39.912C170.194 37.224 171.295 34.592 172.49 32.016C173.722 29.44 174.972 27.1067 176.242 25.016C177.548 22.888 178.78 21.1893 179.938 19.92C181.132 18.6507 182.178 18.016 183.074 18.016C183.858 18.016 184.455 18.4453 184.866 19.304C185.276 20.1627 185.482 21.0587 185.482 21.992C185.482 23 185.239 24.2507 184.754 25.744C184.306 27.2 183.671 28.768 182.85 30.448C182.028 32.128 181.058 33.7893 179.938 35.432C178.855 37.0373 177.66 38.512 176.354 39.856C175.084 41.2 173.759 42.2827 172.378 43.104C171.892 44.3733 171.5 45.568 171.202 46.688C170.94 47.7707 170.754 48.7973 170.642 49.768C170.53 50.7387 170.474 51.6907 170.474 52.624C170.474 52.8107 170.474 53.016 170.474 53.24C170.511 53.4267 170.53 53.6133 170.53 53.8C170.679 53.576 170.922 52.9973 171.258 52.064C171.594 51.1307 172.042 50.048 172.602 48.816C173.199 47.5467 173.927 46.3147 174.786 45.12C175.644 43.888 176.652 42.88 177.81 42.096C178.967 41.2747 180.292 40.864 181.786 40.864C183.055 40.864 184.044 41.1627 184.754 41.76C185.463 42.32 185.967 43.0293 186.266 43.888C186.564 44.7093 186.714 45.5493 186.714 46.408C186.714 47.6027 186.508 48.7227 186.098 49.768C185.724 50.8133 185.332 51.8027 184.922 52.736C184.548 53.632 184.362 54.4907 184.362 55.312C184.362 55.984 184.511 56.4507 184.81 56.712C185.108 56.9733 185.463 57.104 185.874 57.104C186.695 57.104 187.647 56.6933 188.73 55.872C189.85 55.0507 190.951 53.968 192.034 52.624C193.154 51.2427 194.106 49.7307 194.89 48.088L195.786 49.04C194.927 50.9067 193.919 52.624 192.762 54.192C191.604 55.76 190.335 57.0107 188.954 57.944C187.572 58.8773 186.079 59.344 184.474 59.344C183.055 59.344 181.972 58.9707 181.226 58.224C180.479 57.4773 180.106 56.544 180.106 55.424C180.106 54.64 180.236 53.7813 180.498 52.848C180.796 51.8773 181.076 50.9067 181.338 49.936C181.599 48.9653 181.73 48.088 181.73 47.304C181.73 46.408 181.524 45.792 181.114 45.456C180.74 45.12 180.274 44.952 179.714 44.952C178.78 44.952 177.94 45.3253 177.194 46.072C176.447 46.7813 175.775 47.7147 175.178 48.872C174.58 50.0293 174.02 51.2613 173.498 52.568C172.975 53.8373 172.452 55.0507 171.93 56.208C171.407 57.3653 170.847 58.2987 170.25 59.008C169.69 59.7547 169.036 60.128 168.29 60.128ZM173.554 39.52C174.524 38.6613 175.458 37.6347 176.354 36.44C177.25 35.2453 178.071 34.0133 178.818 32.744C179.602 31.4373 180.274 30.1867 180.834 28.992C181.431 27.76 181.898 26.6587 182.234 25.688C182.57 24.7173 182.756 23.9707 182.794 23.448C182.794 23.4107 182.794 23.392 182.794 23.392C182.794 23.3547 182.794 23.3173 182.794 23.28C182.57 23.28 182.084 23.7467 181.338 24.68C180.628 25.576 179.788 26.808 178.818 28.376C177.884 29.9067 176.932 31.6427 175.962 33.584C175.028 35.5253 174.226 37.504 173.554 39.52Z" fill="#FBDCC1"/>
<path d="M196.521 60.632C195.289 60.632 194.226 60.2213 193.329 59.4C192.396 58.5787 191.929 57.3467 191.929 55.704C191.929 54.3973 192.228 52.9787 192.826 51.448C193.423 49.9173 194.244 48.4053 195.289 46.912C196.335 45.4187 197.529 44.0747 198.873 42.88C200.217 41.648 201.655 40.6587 203.186 39.912C204.716 39.1653 206.247 38.792 207.777 38.792C209.383 38.792 210.745 39.2027 211.866 40.024C212.986 40.8453 213.546 41.928 213.546 43.272C213.546 44.28 213.191 45.008 212.481 45.456C211.772 45.904 210.932 46.0347 209.962 45.848C210.036 45.512 210.092 45.176 210.13 44.84C210.204 44.504 210.242 44.1493 210.242 43.776C210.242 43.0293 210.092 42.3573 209.793 41.76C209.495 41.1627 208.86 40.864 207.889 40.864C206.844 40.864 205.78 41.2187 204.698 41.928C203.615 42.6373 202.57 43.5707 201.562 44.728C200.591 45.848 199.713 47.0987 198.929 48.48C198.146 49.824 197.529 51.1493 197.081 52.456C196.633 53.7627 196.41 54.9387 196.41 55.984C196.41 57.1787 196.839 57.776 197.698 57.776C198.556 57.776 199.508 57.3653 200.553 56.544C201.599 55.6853 202.644 54.6213 203.689 53.352C204.772 52.0827 205.799 50.7947 206.77 49.488C207.74 48.144 208.58 47.0053 209.289 46.072C209.401 45.8853 209.551 45.792 209.738 45.792C209.887 45.8293 210.167 45.9227 210.577 46.072C211.025 46.184 211.436 46.3707 211.81 46.632C212.183 46.8933 212.369 47.2293 212.369 47.64C212.369 48.0133 212.201 48.4987 211.866 49.096C211.567 49.656 211.193 50.2907 210.745 51C210.335 51.672 209.961 52.3627 209.625 53.072C209.327 53.744 209.177 54.3973 209.177 55.032C209.177 55.5173 209.308 55.984 209.569 56.432C209.831 56.8427 210.26 57.048 210.857 57.048C211.754 57.048 213.004 56.3947 214.609 55.088C216.252 53.744 217.913 51.4853 219.593 48.312L220.658 49.376C219.762 51.392 218.679 53.184 217.41 54.752C216.177 56.2827 214.871 57.4773 213.49 58.336C212.108 59.232 210.708 59.68 209.289 59.68C207.759 59.68 206.62 59.1947 205.873 58.224C205.127 57.2533 204.716 56.208 204.641 55.088C204.641 55.0133 204.641 54.9573 204.641 54.92C204.641 54.8827 204.641 54.8453 204.641 54.808C203.148 56.6 201.767 58.0187 200.497 59.064C199.265 60.1093 197.94 60.632 196.521 60.632Z" fill="#FBDCC1"/>
<path d="M245.863 62.872C243.81 62.872 242.391 62.4613 241.607 61.64C240.823 60.856 240.413 59.8293 240.375 58.56C240.375 57.4773 240.581 56.1893 240.991 54.696C241.439 53.1653 241.887 51.7093 242.335 50.328C243.231 47.6773 244.165 45.064 245.135 42.488C246.106 39.912 247.077 37.4293 248.047 35.04C249.055 32.6507 250.007 30.3733 250.903 28.208C251.837 26.0427 252.695 24.0453 253.479 22.216C250.941 22.2533 248.738 22.328 246.871 22.44C245.042 22.552 243.362 22.7013 241.831 22.888C240.301 23.0373 238.714 23.2613 237.071 23.56C237.258 21.992 237.986 20.7973 239.255 19.976C240.562 19.1173 242.298 18.52 244.463 18.184C246.629 17.848 249.111 17.68 251.911 17.68C253.367 17.68 254.73 17.7173 255.999 17.792C257.306 17.8293 258.538 17.904 259.695 18.016C260.89 18.128 262.047 18.24 263.167 18.352C265.519 18.576 267.386 18.7253 268.767 18.8C270.186 18.8747 271.194 18.912 271.791 18.912C270.671 19.9573 269.253 20.7227 267.535 21.208C265.855 21.656 264.082 21.936 262.215 22.048C260.349 22.16 258.575 22.216 256.895 22.216C255.103 26.6213 253.461 31.1947 251.967 35.936C250.474 40.6773 249.093 45.3627 247.823 49.992C247.338 51.784 246.927 53.3147 246.591 54.584C246.293 55.816 246.069 56.9547 245.919 58C245.77 59.008 245.695 60.0907 245.695 61.248C245.695 61.4347 245.695 61.64 245.695 61.864C245.733 62.1253 245.789 62.4613 245.863 62.872Z" fill="#FBDCC1"/>
<path d="M261.134 59.68C259.864 59.68 258.819 59.1013 257.998 57.944C257.214 56.7493 256.822 55.3867 256.822 53.856C256.822 52.8107 256.99 51.5787 257.326 50.16C257.662 48.7413 258.091 47.36 258.614 46.016C259.174 44.672 259.734 43.552 260.294 42.656C260.891 41.76 261.432 41.312 261.918 41.312C262.179 41.312 262.571 41.4613 263.094 41.76C263.654 42.0213 264.139 42.3573 264.55 42.768C264.139 43.3653 263.635 44.28 263.038 45.512C262.478 46.744 261.974 48.0693 261.526 49.488C261.078 50.9067 260.854 52.1947 260.854 53.352C260.854 53.5013 260.872 53.856 260.91 54.416C260.984 54.976 261.134 55.4987 261.358 55.984C261.582 56.4693 261.974 56.712 262.534 56.712C263.168 56.712 263.84 56.376 264.55 55.704C265.296 54.9947 266.043 54.0987 266.79 53.016C267.574 51.896 268.32 50.7013 269.03 49.432C269.776 48.1627 270.43 46.9307 270.99 45.736C271.587 44.5413 272.072 43.5333 272.446 42.712C272.782 42.7493 273.211 42.8427 273.734 42.992C274.294 43.1413 274.779 43.3467 275.19 43.608C275.6 43.832 275.806 44.168 275.806 44.616C275.806 44.728 275.619 45.1947 275.246 46.016C274.91 46.8 274.499 47.752 274.014 48.872C273.566 49.992 273.155 51.1493 272.782 52.344C272.446 53.5013 272.278 54.528 272.278 55.424C272.278 55.9467 272.371 56.4133 272.558 56.824C272.782 57.1973 273.192 57.384 273.79 57.384C274.574 57.384 275.507 57.0293 276.59 56.32C277.672 55.6107 278.792 54.584 279.95 53.24C281.107 51.896 282.134 50.2907 283.03 48.424L283.87 49.096C283.048 51.112 281.984 52.9227 280.678 54.528C279.371 56.1333 277.971 57.384 276.478 58.28C274.984 59.2133 273.528 59.68 272.11 59.68C271.027 59.68 270.206 59.4187 269.646 58.896C269.123 58.4107 268.768 57.776 268.582 56.992C268.395 56.1707 268.283 55.3493 268.246 54.528C268.246 54.3413 268.246 54.1547 268.246 53.968C268.246 53.744 268.246 53.5573 268.246 53.408C267.611 54.416 266.92 55.4053 266.174 56.376C265.427 57.3093 264.624 58.0933 263.766 58.728C262.944 59.3627 262.067 59.68 261.134 59.68Z" fill="#FBDCC1"/>
<path d="M300.468 59.12C299.012 59.12 297.892 58.7467 297.108 58C296.362 57.2907 295.988 56.376 295.988 55.256C295.988 54.5093 296.119 53.7253 296.38 52.904C296.642 52.0453 296.903 51.1867 297.164 50.328C297.426 49.4693 297.556 48.648 297.556 47.864C297.556 47.0427 297.351 46.4827 296.94 46.184C296.567 45.848 296.119 45.68 295.596 45.68C294.476 45.68 293.319 46.1467 292.124 47.08C290.967 47.976 289.828 49.1147 288.708 50.496C287.626 51.8773 286.599 53.3147 285.628 54.808C284.658 56.3013 283.818 57.6453 283.108 58.84C282.399 58.84 281.727 58.7093 281.092 58.448C280.458 58.224 279.916 57.8133 279.468 57.216C279.506 57.0293 279.73 56.4693 280.14 55.536C280.514 54.5653 280.943 53.4267 281.428 52.12C281.914 50.776 282.343 49.376 282.716 47.92C283.09 46.464 283.276 45.1387 283.276 43.944C283.538 43.6453 283.93 43.3467 284.452 43.048C285.012 42.7493 285.591 42.6 286.188 42.6C287.495 42.6 288.148 43.16 288.148 44.28C288.148 44.728 288.055 45.4 287.868 46.296C287.719 47.1547 287.495 48.144 287.196 49.264C288.167 47.9573 289.231 46.7253 290.388 45.568C291.546 44.4107 292.74 43.4773 293.972 42.768C295.242 42.0213 296.511 41.648 297.78 41.648C299.386 41.648 300.562 42.1893 301.308 43.272C302.092 44.3547 302.484 45.5493 302.484 46.856C302.484 47.976 302.298 49.0213 301.924 49.992C301.551 50.9627 301.178 51.8773 300.804 52.736C300.468 53.5947 300.3 54.4347 300.3 55.256C300.3 55.8533 300.431 56.2827 300.692 56.544C300.991 56.768 301.308 56.88 301.644 56.88C302.54 56.88 303.474 56.4507 304.444 55.592C305.415 54.7333 306.33 53.6507 307.188 52.344C308.084 51 308.868 49.656 309.54 48.312L310.492 49.096C309.708 50.9253 308.812 52.6053 307.804 54.136C306.834 55.6293 305.732 56.8427 304.5 57.776C303.306 58.672 301.962 59.12 300.468 59.12Z" fill="#FBDCC1"/>
<path d="M314.561 60.464C312.172 60.464 310.324 59.8107 309.017 58.504C307.748 57.2347 307.113 55.6293 307.113 53.688C307.113 52.0453 307.524 50.3093 308.345 48.48C309.204 46.6133 310.343 44.8773 311.761 43.272C313.18 41.6293 314.748 40.304 316.465 39.296C318.183 38.288 319.9 37.784 321.617 37.784C322.588 37.784 323.503 38.0453 324.361 38.568C325.257 39.0533 325.705 40.0427 325.705 41.536C325.705 42.9547 325.295 44.28 324.473 45.512C323.652 46.744 322.551 47.8453 321.169 48.816C319.788 49.7867 318.257 50.5893 316.577 51.224C314.935 51.8213 313.273 52.2133 311.593 52.4C311.556 52.5493 311.519 52.7173 311.481 52.904C311.481 53.0533 311.481 53.3147 311.481 53.688C311.481 53.8747 311.5 54.2107 311.537 54.696C311.612 55.144 311.78 55.6293 312.041 56.152C312.303 56.6747 312.732 57.1227 313.329 57.496C313.927 57.8693 314.748 58.056 315.793 58.056C317.361 58.056 318.929 57.6267 320.497 56.768C322.103 55.872 323.596 54.696 324.977 53.24C326.396 51.784 327.572 50.16 328.505 48.368L329.625 49.264C328.617 51.504 327.311 53.464 325.705 55.144C324.137 56.824 322.383 58.1307 320.441 59.064C318.537 59.9973 316.577 60.464 314.561 60.464ZM312.209 50.328C313.18 50.216 314.263 49.88 315.457 49.32C316.652 48.76 317.791 48.0507 318.873 47.192C319.993 46.3333 320.908 45.4 321.617 44.392C322.327 43.3467 322.681 42.3013 322.681 41.256C322.681 40.8453 322.607 40.5653 322.457 40.416C322.308 40.2667 322.065 40.192 321.729 40.192C320.871 40.192 319.975 40.5093 319.041 41.144C318.108 41.7413 317.193 42.544 316.297 43.552C315.401 44.5227 314.599 45.6053 313.889 46.8C313.18 47.9947 312.62 49.1707 312.209 50.328Z" fill="#FBDCC1"/>
</svg>
