<svg width="255" height="62" viewBox="0 0 255 62" fill="none" xmlns="http://www.w3.org/2000/svg">
<ellipse cx="30.4048" cy="31" rx="30.4048" ry="31" fill="#FBDCC1"/>
<ellipse cx="30.7849" cy="24.4127" rx="14.0622" ry="14.3375" fill="#F4A461"/>
<path fill-rule="evenodd" clip-rule="evenodd" d="M59.3025 41.0752C55.3191 53.2253 43.8866 62.0002 30.4046 62.0002C16.9227 62.0002 5.49017 53.2253 1.50684 41.0752H59.3025Z" fill="#14617F"/>
<path fill-rule="evenodd" clip-rule="evenodd" d="M1.64158 41.0756C0.89312 38.8539 0.385316 36.5181 0.149902 34.1006H60.6592C60.4238 36.5181 59.916 38.8539 59.1675 41.0756H1.64158Z" fill="#1F93C0"/>
<path fill-rule="evenodd" clip-rule="evenodd" d="M60.6594 34.1006C60.7587 33.081 60.8095 32.0468 60.8095 31.0006C60.8095 30.7415 60.8064 30.4832 60.8002 30.2256H0.0093159C0.00311735 30.4832 0 30.7415 0 31.0006C0 32.0468 0.0508351 33.081 0.150124 34.1006H60.6594Z" fill="#46B5E0"/>
<path fill-rule="evenodd" clip-rule="evenodd" d="M60.7253 28.6748C60.7626 29.1881 60.7877 29.7049 60.8002 30.2248H0.00927734C0.0217903 29.7049 0.0468594 29.1881 0.0841871 28.6748H60.7253Z" fill="#87CEEB"/>
<path d="M78.0403 48.7258C77.177 48.2629 76.6302 47.7855 76.4 47.2936C76.1698 46.8018 76.0547 46.3822 76.0547 46.035C76.0547 45.2538 76.3281 44.2122 76.8748 42.9102C77.4504 41.5793 78.213 40.0603 79.1627 38.3532C80.1123 36.6462 81.1915 34.8668 82.4001 33.015C81.508 32.9572 80.6591 32.9138 79.8533 32.8848C79.0475 32.8559 78.0116 32.8414 76.7453 32.8414H76.0547C76.4576 31.7998 77.0907 31.0765 77.954 30.6714C78.8461 30.2374 79.8821 30.0204 81.062 30.0204C81.5512 30.0204 82.0548 30.0494 82.5728 30.1072C83.1196 30.1651 83.6807 30.223 84.2563 30.2808C85.6951 28.1976 87.1052 26.2302 88.4866 24.3784C89.8966 22.5267 91.2204 20.863 92.4578 19.3874C93.724 17.8829 94.8464 16.6532 95.8248 15.6984C97.2061 14.3096 98.2133 13.6152 98.8464 13.6152C99.2493 13.6152 99.6954 13.7744 100.185 14.0926C100.703 14.4109 101.235 14.816 101.782 15.3078C101.494 15.5393 101.12 16.1324 100.659 17.0872C100.228 18.042 99.7529 19.2572 99.2349 20.7328C98.7457 22.1795 98.2421 23.7708 97.7241 25.5068C97.2349 27.2428 96.7888 29.0078 96.386 30.8016C95.9831 32.5955 95.6521 34.317 95.3931 35.9662C95.1629 37.5865 95.0478 39.0187 95.0478 40.2628C95.0478 41.4202 95.1629 42.2882 95.3931 42.8668C95.6234 43.4166 96.0119 43.6914 96.5586 43.6914C97.2205 43.6914 98.0407 43.1851 99.0191 42.1724C99.9975 41.1598 101.091 39.5106 102.3 37.2248L103.077 38.0494C102.185 40.422 101.019 42.375 99.5803 43.9084C98.1702 45.4419 96.6594 46.2086 95.0478 46.2086C93.6665 46.2086 92.6881 45.6155 92.1125 44.4292C91.537 43.214 91.2492 41.5648 91.2492 39.4816C91.2492 38.8162 91.2924 38.0639 91.3787 37.2248C91.465 36.3858 91.6089 35.3442 91.8103 34.1C90.5441 33.8975 89.4218 33.7384 88.4434 33.6226C87.465 33.5069 86.5297 33.3912 85.6376 33.2754C84.2563 35.7348 82.9181 38.2809 81.6231 40.9138C80.3281 43.5468 79.1339 46.1508 78.0403 48.7258ZM92.242 31.9734C92.6161 30.2664 93.0478 28.5448 93.537 26.8088C94.055 25.0439 94.5874 23.3658 95.1341 21.7744C95.7097 20.1542 96.2709 18.7075 96.8176 17.4344C95.9543 18.1288 94.9903 19.127 93.9255 20.429C92.8607 21.731 91.7384 23.2645 90.5585 25.0294C89.4074 26.7944 88.2276 28.7184 87.0189 30.8016C87.8822 30.9752 88.7455 31.1633 89.6089 31.3658C90.4722 31.5684 91.3499 31.7709 92.242 31.9734Z" fill="#14617F"/>
<path d="M104.807 46.252C103.454 46.252 102.505 45.8036 101.958 44.9066C101.44 43.9808 101.181 42.8958 101.181 41.6516C101.181 40.2339 101.44 38.5702 101.958 36.6606C102.476 34.751 103.152 32.7546 103.987 30.6714C104.85 28.5593 105.785 26.505 106.792 24.5086C107.828 22.4833 108.864 20.6605 109.9 19.0402C110.936 17.42 111.886 16.1324 112.749 15.1776C113.641 14.1939 114.361 13.702 114.908 13.702C115.282 13.702 115.598 13.9046 115.857 14.3096C116.116 14.6858 116.318 15.1487 116.462 15.6984C116.634 16.2192 116.721 16.7111 116.721 17.174C116.721 17.9552 116.519 18.9824 116.116 20.2554C115.742 21.4996 115.195 22.8739 114.476 24.3784C113.785 25.883 112.951 27.4309 111.972 29.0222C111.023 30.5846 109.958 32.0747 108.778 33.4924C107.627 34.9102 106.39 36.1398 105.066 37.1814C104.951 37.9048 104.836 38.6281 104.72 39.3514C104.634 40.0458 104.591 40.6824 104.591 41.261C104.591 42.3026 104.764 43.0694 105.109 43.5612C105.454 44.0242 105.9 44.2556 106.447 44.2556C107.166 44.2556 107.9 43.9229 108.649 43.2574C109.426 42.563 110.159 41.695 110.85 40.6534C111.569 39.5829 112.188 38.4834 112.706 37.355L113.742 37.9192C112.505 40.4943 111.123 42.5341 109.598 44.0386C108.073 45.5142 106.476 46.252 104.807 46.252ZM105.843 34.4906C106.821 33.4201 107.742 32.2628 108.605 31.0186C109.497 29.7456 110.303 28.458 111.023 27.156C111.771 25.854 112.418 24.5954 112.965 23.3802C113.512 22.165 113.929 21.08 114.217 20.1252C114.534 19.1415 114.706 18.3603 114.735 17.7816C114.735 17.7527 114.735 17.7382 114.735 17.7382C114.735 17.7093 114.735 17.6804 114.735 17.6514C114.505 17.6514 114.131 17.9842 113.613 18.6496C113.123 19.2862 112.533 20.1686 111.843 21.297C111.152 22.4254 110.433 23.713 109.685 25.1596C108.965 26.6063 108.26 28.1398 107.569 29.76C106.907 31.3514 106.332 32.9282 105.843 34.4906Z" fill="#14617F"/>
<path d="M114.524 46.3388C113.229 46.3388 112.337 45.9048 111.848 45.0368C111.387 44.1978 111.157 43.2719 111.157 42.2592C111.157 41.3334 111.301 40.393 111.589 39.4382C111.877 38.4545 112.265 37.5431 112.754 36.704C113.272 35.865 113.834 35.1995 114.438 34.7076C115.071 34.1868 115.704 33.9264 116.337 33.9264C116.539 33.9264 116.769 33.9698 117.028 34.0566C117.316 34.1145 117.517 34.2158 117.632 34.3604C117.287 34.7944 116.927 35.3297 116.553 35.9662C116.208 36.6028 115.877 37.2827 115.56 38.006C115.272 38.7004 115.042 39.4093 114.87 40.1326C114.697 40.856 114.611 41.5214 114.611 42.129C114.611 42.7077 114.711 43.1851 114.913 43.5612C115.143 43.9374 115.531 44.1254 116.078 44.1254C116.625 44.1254 117.272 43.8216 118.021 43.214C118.798 42.5775 119.531 41.8542 120.222 41.044C119.301 40.205 118.639 39.2936 118.236 38.3098C117.834 37.2972 117.632 36.082 117.632 34.6642C117.632 34.0566 117.776 33.3622 118.064 32.581C118.38 31.7998 118.87 31.1199 119.531 30.5412C120.222 29.9626 121.143 29.6732 122.294 29.6732C123.532 29.6732 124.395 30.0204 124.884 30.7148C125.402 31.4092 125.661 32.2338 125.661 33.1886C125.661 34.2592 125.373 35.4599 124.798 36.7908C124.251 38.1218 123.589 39.3804 122.812 40.5666C123.157 40.7402 123.56 40.827 124.021 40.827C124.452 40.827 124.97 40.7258 125.575 40.5232C126.179 40.3207 126.769 39.988 127.345 39.525C127.92 39.0332 128.381 38.3822 128.726 37.572L129.503 38.1362C128.87 39.6118 128.021 40.6968 126.956 41.3912C125.92 42.0567 124.898 42.3894 123.891 42.3894C123.517 42.3894 123.143 42.3605 122.769 42.3026C122.395 42.2158 122.05 42.1146 121.733 41.9988C120.755 43.1562 119.632 44.1688 118.366 45.0368C117.1 45.9048 115.819 46.3388 114.524 46.3388ZM121.344 39.6552C122.035 38.6426 122.625 37.5576 123.114 36.4002C123.603 35.2429 123.848 34.1724 123.848 33.1886C123.848 32.5232 123.747 32.0458 123.546 31.7564C123.344 31.4382 123.042 31.279 122.639 31.279C122.093 31.279 121.532 31.6696 120.956 32.4508C120.38 33.232 120.093 34.2158 120.093 35.402C120.093 36.0096 120.193 36.7474 120.395 37.6154C120.625 38.4834 120.942 39.1634 121.344 39.6552Z" fill="#14617F"/>
<path d="M129.722 46.5992C129.089 46.5992 128.628 46.1074 128.34 45.1236C128.081 44.1399 127.952 42.997 127.952 41.695C127.952 40.3641 128.168 38.7583 128.599 36.8776C129.06 34.997 129.664 33.015 130.412 30.9318C131.189 28.8486 132.038 26.8088 132.959 24.8124C133.909 22.816 134.873 21.0077 135.851 19.3874C136.859 17.7382 137.808 16.4218 138.7 15.438C139.621 14.4543 140.427 13.9624 141.118 13.9624C141.722 13.9624 142.182 14.2952 142.499 14.9606C142.815 15.6261 142.974 16.3205 142.974 17.0438C142.974 17.825 142.787 18.7943 142.413 19.9516C142.067 21.08 141.578 22.2952 140.945 23.5972C140.312 24.8992 139.564 26.1868 138.7 27.4598C137.866 28.704 136.945 29.8468 135.938 30.8884C134.959 31.93 133.938 32.7691 132.873 33.4056C132.499 34.3894 132.197 35.3152 131.966 36.1832C131.765 37.0223 131.621 37.818 131.535 38.5702C131.448 39.3225 131.405 40.0603 131.405 40.7836C131.405 40.9283 131.405 41.0874 131.405 41.261C131.434 41.4057 131.448 41.5504 131.448 41.695C131.563 41.5214 131.751 41.073 132.01 40.3496C132.269 39.6263 132.614 38.7872 133.046 37.8324C133.506 36.8487 134.067 35.8939 134.729 34.968C135.391 34.0132 136.168 33.232 137.06 32.6244C137.952 31.9879 138.974 31.6696 140.125 31.6696C141.103 31.6696 141.866 31.9011 142.413 32.364C142.959 32.798 143.348 33.3478 143.578 34.0132C143.808 34.6498 143.923 35.3008 143.923 35.9662C143.923 36.8921 143.765 37.7601 143.449 38.5702C143.161 39.3804 142.859 40.1471 142.542 40.8704C142.254 41.5648 142.11 42.2303 142.11 42.8668C142.11 43.3876 142.226 43.7493 142.456 43.9518C142.686 44.1544 142.959 44.2556 143.276 44.2556C143.909 44.2556 144.643 43.9374 145.477 43.3008C146.341 42.6643 147.19 41.8252 148.024 40.7836C148.888 39.7131 149.621 38.5413 150.226 37.2682L150.916 38.006C150.254 39.4527 149.477 40.7836 148.585 41.9988C147.693 43.214 146.715 44.1833 145.65 44.9066C144.585 45.63 143.434 45.9916 142.197 45.9916C141.103 45.9916 140.269 45.7023 139.693 45.1236C139.118 44.545 138.83 43.8216 138.83 42.9536C138.83 42.346 138.931 41.6806 139.132 40.9572C139.362 40.205 139.578 39.4527 139.779 38.7004C139.981 37.9482 140.082 37.2682 140.082 36.6606C140.082 35.9662 139.923 35.4888 139.607 35.2284C139.319 34.968 138.959 34.8378 138.528 34.8378C137.808 34.8378 137.161 35.1272 136.585 35.7058C136.01 36.2556 135.492 36.9789 135.031 37.8758C134.571 38.7728 134.139 39.7276 133.736 40.7402C133.333 41.724 132.93 42.6643 132.528 43.5612C132.125 44.4582 131.693 45.1815 131.233 45.7312C130.801 46.3099 130.297 46.5992 129.722 46.5992ZM133.779 30.628C134.528 29.9626 135.247 29.1669 135.938 28.241C136.628 27.3152 137.261 26.3604 137.837 25.3766C138.441 24.364 138.959 23.3947 139.391 22.4688C139.851 21.514 140.211 20.6605 140.47 19.9082C140.729 19.156 140.873 18.5773 140.902 18.1722C140.902 18.1433 140.902 18.1288 140.902 18.1288C140.902 18.0999 140.902 18.071 140.902 18.042C140.729 18.042 140.355 18.4037 139.779 19.127C139.233 19.8214 138.585 20.7762 137.837 21.9914C137.118 23.1777 136.384 24.5231 135.635 26.0276C134.916 27.5322 134.297 29.0656 133.779 30.628Z" fill="#14617F"/>
<path d="M151.484 46.9898C150.534 46.9898 149.714 46.6716 149.023 46.035C148.304 45.3985 147.944 44.4437 147.944 43.1706C147.944 42.158 148.174 41.0585 148.635 39.8722C149.095 38.686 149.728 37.5142 150.534 36.3568C151.34 35.1995 152.261 34.1579 153.297 33.232C154.333 32.2772 155.44 31.5105 156.62 30.9318C157.8 30.3532 158.98 30.0638 160.16 30.0638C161.397 30.0638 162.448 30.3821 163.311 31.0186C164.174 31.6552 164.606 32.4942 164.606 33.5358C164.606 34.317 164.333 34.8812 163.786 35.2284C163.239 35.5756 162.592 35.6769 161.843 35.5322C161.901 35.2718 161.944 35.0114 161.973 34.751C162.031 34.4906 162.059 34.2158 162.059 33.9264C162.059 33.3478 161.944 32.827 161.714 32.364C161.484 31.9011 160.995 31.6696 160.246 31.6696C159.441 31.6696 158.62 31.9445 157.786 32.4942C156.951 33.044 156.146 33.7673 155.369 34.6642C154.62 35.5322 153.944 36.5015 153.34 37.572C152.735 38.6136 152.261 39.6408 151.915 40.6534C151.57 41.6661 151.397 42.5775 151.397 43.3876C151.397 44.3135 151.728 44.7764 152.39 44.7764C153.052 44.7764 153.786 44.4582 154.592 43.8216C155.397 43.1562 156.203 42.3316 157.009 41.3478C157.843 40.3641 158.635 39.3659 159.383 38.3532C160.131 37.3116 160.779 36.4292 161.325 35.7058C161.412 35.5612 161.527 35.4888 161.671 35.4888C161.786 35.5178 162.002 35.5901 162.318 35.7058C162.664 35.7926 162.98 35.9373 163.268 36.1398C163.556 36.3424 163.7 36.6028 163.7 36.921C163.7 37.2104 163.57 37.5865 163.311 38.0494C163.081 38.4834 162.793 38.9753 162.448 39.525C162.131 40.0458 161.843 40.5811 161.584 41.1308C161.354 41.6516 161.239 42.158 161.239 42.6498C161.239 43.026 161.34 43.3876 161.541 43.7348C161.743 44.0531 162.074 44.2122 162.534 44.2122C163.225 44.2122 164.189 43.7059 165.426 42.6932C166.692 41.6516 167.973 39.9012 169.268 37.4418L170.088 38.2664C169.398 39.8288 168.563 41.2176 167.585 42.4328C166.635 43.6191 165.628 44.545 164.563 45.2104C163.498 45.9048 162.419 46.252 161.325 46.252C160.146 46.252 159.268 45.8759 158.692 45.1236C158.117 44.3714 157.8 43.5612 157.743 42.6932C157.743 42.6354 157.743 42.592 157.743 42.563C157.743 42.5341 157.743 42.5052 157.743 42.4762C156.592 43.865 155.527 44.9645 154.548 45.7746C153.599 46.5848 152.577 46.9898 151.484 46.9898Z" fill="#14617F"/>
<path d="M189.517 48.7258C187.935 48.7258 186.841 48.4076 186.237 47.771C185.632 47.1634 185.316 46.3678 185.287 45.384C185.287 44.545 185.445 43.5468 185.762 42.3894C186.107 41.2032 186.453 40.0748 186.798 39.0042C187.489 36.95 188.208 34.9246 188.956 32.9282C189.704 30.9318 190.453 29.0078 191.201 27.156C191.978 25.3043 192.712 23.5394 193.402 21.8612C194.122 20.1831 194.784 18.6352 195.388 17.2174C193.431 17.2464 191.733 17.3042 190.294 17.391C188.884 17.4778 187.589 17.5936 186.409 17.7382C185.23 17.854 184.006 18.0276 182.74 18.259C182.884 17.0438 183.445 16.118 184.424 15.4814C185.431 14.816 186.769 14.353 188.438 14.0926C190.107 13.8322 192.021 13.702 194.179 13.702C195.302 13.702 196.352 13.731 197.33 13.7888C198.338 13.8178 199.287 13.8756 200.179 13.9624C201.1 14.0492 201.992 14.136 202.856 14.2228C204.669 14.3964 206.108 14.5122 207.172 14.57C208.266 14.6279 209.043 14.6568 209.503 14.6568C208.64 15.467 207.546 16.0601 206.223 16.4362C204.928 16.7834 203.561 17.0004 202.122 17.0872C200.683 17.174 199.316 17.2174 198.021 17.2174C196.64 20.6316 195.374 24.1759 194.222 27.8504C193.071 31.525 192.007 35.1561 191.028 38.7438C190.654 40.1326 190.338 41.3189 190.079 42.3026C189.848 43.2574 189.676 44.1399 189.561 44.95C189.445 45.7312 189.388 46.5703 189.388 47.4672C189.388 47.6119 189.388 47.771 189.388 47.9446C189.417 48.1472 189.46 48.4076 189.517 48.7258Z" fill="#14617F"/>
<path d="M201.288 46.252C200.31 46.252 199.504 45.8036 198.871 44.9066C198.267 43.9808 197.964 42.9247 197.964 41.7384C197.964 40.9283 198.094 39.9735 198.353 38.874C198.612 37.7746 198.943 36.704 199.346 35.6624C199.777 34.6208 200.209 33.7528 200.641 33.0584C201.101 32.364 201.518 32.0168 201.893 32.0168C202.094 32.0168 202.396 32.1326 202.799 32.364C203.231 32.5666 203.605 32.827 203.921 33.1452C203.605 33.6082 203.216 34.317 202.756 35.2718C202.324 36.2266 201.936 37.2538 201.59 38.3532C201.245 39.4527 201.072 40.4509 201.072 41.3478C201.072 41.4636 201.087 41.7384 201.116 42.1724C201.173 42.6064 201.288 43.0115 201.461 43.3876C201.634 43.7638 201.936 43.9518 202.367 43.9518C202.857 43.9518 203.375 43.6914 203.921 43.1706C204.497 42.6209 205.072 41.9265 205.648 41.0874C206.252 40.2194 206.828 39.2936 207.375 38.3098C207.95 37.3261 208.454 36.3713 208.885 35.4454C209.346 34.5196 209.72 33.7384 210.008 33.1018C210.267 33.1308 210.598 33.2031 211.001 33.3188C211.432 33.4346 211.806 33.5937 212.123 33.7962C212.439 33.9698 212.598 34.2302 212.598 34.5774C212.598 34.6642 212.454 35.0259 212.166 35.6624C211.907 36.27 211.591 37.0078 211.216 37.8758C210.871 38.7438 210.555 39.6408 210.267 40.5666C210.008 41.4636 209.878 42.2592 209.878 42.9536C209.878 43.3587 209.95 43.7204 210.094 44.0386C210.267 44.328 210.583 44.4726 211.044 44.4726C211.648 44.4726 212.368 44.1978 213.202 43.648C214.037 43.0983 214.9 42.3026 215.792 41.261C216.684 40.2194 217.476 38.9753 218.166 37.5286L218.814 38.0494C218.181 39.6118 217.36 41.0151 216.353 42.2592C215.346 43.5034 214.267 44.4726 213.116 45.167C211.965 45.8904 210.842 46.252 209.749 46.252C208.914 46.252 208.281 46.0495 207.85 45.6444C207.447 45.2683 207.173 44.7764 207.029 44.1688C206.885 43.5323 206.799 42.8958 206.77 42.2592C206.77 42.1146 206.77 41.9699 206.77 41.8252C206.77 41.6516 206.77 41.507 206.77 41.3912C206.281 42.1724 205.749 42.9392 205.173 43.6914C204.598 44.4148 203.979 45.0224 203.317 45.5142C202.684 46.0061 202.008 46.252 201.288 46.252Z" fill="#14617F"/>
<path d="M231.608 45.818C230.486 45.818 229.623 45.5287 229.018 44.95C228.443 44.4003 228.155 43.6914 228.155 42.8234C228.155 42.2448 228.256 41.6372 228.457 41.0006C228.659 40.3352 228.86 39.6697 229.062 39.0042C229.263 38.3388 229.364 37.7022 229.364 37.0946C229.364 36.4581 229.206 36.0241 228.889 35.7926C228.601 35.5322 228.256 35.402 227.853 35.402C226.99 35.402 226.098 35.7637 225.177 36.487C224.285 37.1814 223.407 38.0639 222.544 39.1344C221.709 40.205 220.918 41.3189 220.169 42.4762C219.421 43.6336 218.774 44.6752 218.227 45.601C217.68 45.601 217.162 45.4998 216.673 45.2972C216.184 45.1236 215.766 44.8054 215.421 44.3424C215.45 44.1978 215.623 43.7638 215.939 43.0404C216.227 42.2882 216.558 41.4057 216.932 40.393C217.306 39.3514 217.637 38.2664 217.925 37.138C218.213 36.0096 218.356 34.9825 218.356 34.0566C218.558 33.8252 218.86 33.5937 219.263 33.3622C219.695 33.1308 220.141 33.015 220.601 33.015C221.608 33.015 222.112 33.449 222.112 34.317C222.112 34.6642 222.04 35.185 221.896 35.8794C221.781 36.5449 221.608 37.3116 221.378 38.1796C222.126 37.167 222.946 36.2122 223.839 35.3152C224.731 34.4183 225.652 33.695 226.601 33.1452C227.58 32.5666 228.558 32.2772 229.536 32.2772C230.774 32.2772 231.68 32.6968 232.256 33.5358C232.86 34.3749 233.162 35.3008 233.162 36.3134C233.162 37.1814 233.019 37.9916 232.731 38.7438C232.443 39.4961 232.155 40.205 231.867 40.8704C231.608 41.5359 231.479 42.1869 231.479 42.8234C231.479 43.2864 231.58 43.6191 231.781 43.8216C232.011 43.9952 232.256 44.082 232.515 44.082C233.206 44.082 233.925 43.7493 234.673 43.0838C235.421 42.4184 236.126 41.5793 236.788 40.5666C237.479 39.525 238.083 38.4834 238.601 37.4418L239.335 38.0494C238.731 39.4672 238.04 40.7692 237.263 41.9554C236.515 43.1128 235.666 44.0531 234.716 44.7764C233.796 45.4708 232.76 45.818 231.608 45.818Z" fill="#14617F"/>
<path d="M242.471 46.8596C240.63 46.8596 239.205 46.3533 238.198 45.3406C237.22 44.3569 236.73 43.1128 236.73 41.6082C236.73 40.3352 237.047 38.9898 237.68 37.572C238.342 36.1254 239.22 34.78 240.313 33.5358C241.407 32.2628 242.615 31.2356 243.939 30.4544C245.263 29.6732 246.587 29.2826 247.91 29.2826C248.659 29.2826 249.364 29.4852 250.026 29.8902C250.716 30.2664 251.062 31.0331 251.062 32.1904C251.062 33.2899 250.745 34.317 250.112 35.2718C249.479 36.2266 248.63 37.0802 247.565 37.8324C246.5 38.5847 245.32 39.2068 244.025 39.6986C242.759 40.1616 241.479 40.4654 240.184 40.61C240.155 40.7258 240.126 40.856 240.097 41.0006C240.097 41.1164 240.097 41.3189 240.097 41.6082C240.097 41.7529 240.112 42.0133 240.141 42.3894C240.198 42.7366 240.328 43.1128 240.529 43.5178C240.73 43.9229 241.061 44.2701 241.522 44.5594C241.982 44.8488 242.615 44.9934 243.421 44.9934C244.63 44.9934 245.838 44.6607 247.047 43.9952C248.285 43.3008 249.436 42.3894 250.5 41.261C251.594 40.1326 252.5 38.874 253.22 37.4852L254.083 38.1796C253.306 39.9156 252.299 41.4346 251.062 42.7366C249.853 44.0386 248.5 45.0513 247.004 45.7746C245.536 46.498 244.025 46.8596 242.471 46.8596ZM240.659 39.0042C241.407 38.9174 242.241 38.657 243.162 38.223C244.083 37.789 244.961 37.2393 245.795 36.5738C246.659 35.9084 247.364 35.185 247.91 34.4038C248.457 33.5937 248.731 32.7836 248.731 31.9734C248.731 31.6552 248.673 31.4382 248.558 31.3224C248.443 31.2067 248.256 31.1488 247.997 31.1488C247.335 31.1488 246.644 31.3948 245.925 31.8866C245.205 32.3496 244.5 32.9716 243.81 33.7528C243.119 34.5051 242.5 35.3442 241.953 36.27C241.407 37.1959 240.975 38.1073 240.659 39.0042Z" fill="#14617F"/>
</svg>
