<svg width="50" height="50" viewBox="0 0 50 50" fill="none" xmlns="http://www.w3.org/2000/svg">
<path d="M34 25.8108C33.8424 27.5166 33.2022 29.1423 32.1543 30.4975C31.1065 31.8528 29.6944 32.8816 28.0832 33.4636C26.4719 34.0456 24.7283 34.1566 23.0563 33.7838C21.3843 33.411 19.853 32.5697 18.6416 31.3584C17.4303 30.147 16.589 28.6157 16.2162 26.9437C15.8434 25.2717 15.9544 23.5281 16.5364 21.9168C17.1184 20.3056 18.1472 18.8935 19.5025 17.8457C20.8577 16.7978 22.4834 16.1576 24.1892 16C23.1905 17.3511 22.7099 19.0158 22.8348 20.6914C22.9598 22.3669 23.682 23.9419 24.87 25.13C26.0581 26.318 27.6331 27.0402 29.3086 27.1652C30.9842 27.2901 32.6489 26.8095 34 25.8108Z" stroke="#05171F" stroke-width="1.5" stroke-linecap="round" stroke-linejoin="round"/>
<circle cx="25" cy="25" r="24.5" stroke="#05171F"/>
</svg>
